HIERARCHY
ROOT Hips
{
	OFFSET 0.000000 0.000000 0.000000
	CHANNELS 6 Xposition Yposition Zposition Xrotation Yrotation Zrotation
	JOINT Thigh.L
	{
		OFFSET 0.054395 0.030780 -0.092084
		CHANNELS 3 Xrotation Yrotation Zrotation
		JOINT Shin.L
		{
			OFFSET 0.053177 0.015764 -0.409799
			CHANNELS 3 Xrotation Yrotation Zrotation
			JOINT Foot.L
			{
				OFFSET -0.041671 0.033051 -0.430293
				CHANNELS 3 Xrotation Yrotation Zrotation
				JOINT Toe.L
				{
					OFFSET 0.044760 -0.119186 -0.063553
					CHANNELS 3 Xrotation Yrotation Zrotation
					End Site
					{
						OFFSET 0.000000 0.050000 0.000000
					}
				}
			}
		}
	}
	JOINT Thigh.R
	{
		OFFSET -0.059682 0.028056 -0.102457
		CHANNELS 3 Xrotation Yrotation Zrotation
		JOINT Shin.R
		{
			OFFSET -0.042532 0.021237 -0.393540
			CHANNELS 3 Xrotation Yrotation Zrotation
			JOINT Foot.R
			{
				OFFSET 0.015683 0.021542 -0.439162
				CHANNELS 3 Xrotation Yrotation Zrotation
				JOINT Toe.R
				{
					OFFSET -0.037066 -0.119951 -0.063533
					CHANNELS 3 Xrotation Yrotation Zrotation
					End Site
					{
						OFFSET 0.000000 0.050000 0.000000
					}
				}
			}
		}
	}
	JOINT Spine
	{
		OFFSET -0.002085 0.019517 0.109418
		CHANNELS 3 Xrotation Yrotation Zrotation
		JOINT Spine.2
		{
			OFFSET 0.006757 0.002878 0.135171
			CHANNELS 3 Xrotation Yrotation Zrotation
			JOINT Chest
			{
				OFFSET -0.010396 -0.023072 0.049502
				CHANNELS 3 Xrotation Yrotation Zrotation
				JOINT Neck
				{
					OFFSET -0.009440 0.028907 0.163773
					CHANNELS 3 Xrotation Yrotation Zrotation
					JOINT Head
					{
						OFFSET 0.022282 -0.022396 0.165823
						CHANNELS 3 Xrotation Yrotation Zrotation
						End Site
						{
							OFFSET 0.000000 0.050000 0.000000
						}
					}
				}
				JOINT Clavicle.L
				{
					OFFSET 0.043289 0.008235 0.083729
					CHANNELS 3 Xrotation Yrotation Zrotation
					JOINT UpperArm.L
					{
						OFFSET 0.106487 0.014930 0.061904
						CHANNELS 3 Xrotation Yrotation Zrotation
						JOINT ForeArm.L
						{
							OFFSET 0.263988 0.035111 -0.075507
							CHANNELS 3 Xrotation Yrotation Zrotation
							JOINT Hand.L
							{
								OFFSET 0.263045 0.006349 0.021211
								CHANNELS 3 Xrotation Yrotation Zrotation
								JOINT Thumb1.L
								{
									OFFSET 0.154577 0.002886 0.009642
									CHANNELS 3 Xrotation Yrotation Zrotation
									JOINT Thumb2.L
									{
										OFFSET 0.029894 0.000722 0.002411
										CHANNELS 3 Xrotation Yrotation Zrotation
										End Site
										{
											OFFSET 0.024912 0.000601 0.002009
										}
									}
								}
								JOINT Index1.L
								{
									OFFSET 0.137577 0.002886 0.009642
									CHANNELS 3 Xrotation Yrotation Zrotation
									JOINT Index2.L
									{
										OFFSET 0.029894 0.000722 0.002411
										CHANNELS 3 Xrotation Yrotation Zrotation
										JOINT Index3.L
										{
											OFFSET 0.021922 0.000529 0.001768
											CHANNELS 3 Xrotation Yrotation Zrotation
											End Site
											{
												OFFSET 0.017937 0.000433 0.001446
											}
										}
									}
								}
								JOINT Middle1.L
								{
									OFFSET 0.119577 0.002886 0.009642
									CHANNELS 3 Xrotation Yrotation Zrotation
									JOINT Middle2.L
									{
										OFFSET 0.030891 0.000746 0.002491
										CHANNELS 3 Xrotation Yrotation Zrotation
										JOINT Middle3.L
										{
											OFFSET 0.021922 0.000529 0.001768
											CHANNELS 3 Xrotation Yrotation Zrotation
											End Site
											{
												OFFSET 0.017937 0.000433 0.001446
											}
										}
									}
								}
								JOINT Ring1.L
								{
									OFFSET 0.101577 0.002886 0.009642
									CHANNELS 3 Xrotation Yrotation Zrotation
									JOINT Ring2.L
									{
										OFFSET 0.028898 0.000698 0.002330
										CHANNELS 3 Xrotation Yrotation Zrotation
										JOINT Ring3.L
										{
											OFFSET 0.019930 0.000481 0.001607
											CHANNELS 3 Xrotation Yrotation Zrotation
											End Site
											{
												OFFSET 0.016940 0.000409 0.001366
											}
										}
									}
								}
								JOINT Pinky1.L
								{
									OFFSET 0.085577 0.002886 0.009642
									CHANNELS 3 Xrotation Yrotation Zrotation
									JOINT Pinky2.L
									{
										OFFSET 0.023915 0.000577 0.001928
										CHANNELS 3 Xrotation Yrotation Zrotation
										JOINT Pinky3.L
										{
											OFFSET 0.016940 0.000409 0.001366
											CHANNELS 3 Xrotation Yrotation Zrotation
											End Site
											{
												OFFSET 0.013951 0.000337 0.001125
											}
										}
									}
								}
							}
						}
					}
				}
				JOINT Clavicle.R
				{
					OFFSET -0.041379 0.014322 0.083237
					CHANNELS 3 Xrotation Yrotation Zrotation
					JOINT UpperArm.R
					{
						OFFSET -0.091922 0.009813 0.057419
						CHANNELS 3 Xrotation Yrotation Zrotation
						JOINT ForeArm.R
						{
							OFFSET -0.280042 0.022554 -0.042721
							CHANNELS 3 Xrotation Yrotation Zrotation
							JOINT Hand.R
							{
								OFFSET -0.259770 0.018899 -0.003447
								CHANNELS 3 Xrotation Yrotation Zrotation
								JOINT Thumb1.R
								{
									OFFSET -0.154673 0.008707 -0.001588
									CHANNELS 3 Xrotation Yrotation Zrotation
									JOINT Thumb2.R
									{
										OFFSET -0.029918 0.002177 -0.000397
										CHANNELS 3 Xrotation Yrotation Zrotation
										End Site
										{
											OFFSET -0.024932 0.001814 -0.000331
										}
									}
								}
								JOINT Index1.R
								{
									OFFSET -0.137673 0.008707 -0.001588
									CHANNELS 3 Xrotation Yrotation Zrotation
									JOINT Index2.R
									{
										OFFSET -0.029918 0.002177 -0.000397
										CHANNELS 3 Xrotation Yrotation Zrotation
										JOINT Index3.R
										{
											OFFSET -0.021940 0.001596 -0.000291
											CHANNELS 3 Xrotation Yrotation Zrotation
											End Site
											{
												OFFSET -0.017951 0.001306 -0.000238
											}
										}
									}
								}
								JOINT Middle1.R
								{
									OFFSET -0.119673 0.008707 -0.001588
									CHANNELS 3 Xrotation Yrotation Zrotation
									JOINT Middle2.R
									{
										OFFSET -0.030916 0.002249 -0.000410
										CHANNELS 3 Xrotation Yrotation Zrotation
										JOINT Middle3.R
										{
											OFFSET -0.021940 0.001596 -0.000291
											CHANNELS 3 Xrotation Yrotation Zrotation
											End Site
											{
												OFFSET -0.017951 0.001306 -0.000238
											}
										}
									}
								}
								JOINT Ring1.R
								{
									OFFSET -0.101673 0.008707 -0.001588
									CHANNELS 3 Xrotation Yrotation Zrotation
									JOINT Ring2.R
									{
										OFFSET -0.028921 0.002104 -0.000384
										CHANNELS 3 Xrotation Yrotation Zrotation
										JOINT Ring3.R
										{
											OFFSET -0.019946 0.001451 -0.000265
											CHANNELS 3 Xrotation Yrotation Zrotation
											End Site
											{
												OFFSET -0.016954 0.001233 -0.000225
											}
										}
									}
								}
								JOINT Pinky1.R
								{
									OFFSET -0.085673 0.008707 -0.001588
									CHANNELS 3 Xrotation Yrotation Zrotation
									JOINT Pinky2.R
									{
										OFFSET -0.023935 0.001741 -0.000318
										CHANNELS 3 Xrotation Yrotation Zrotation
										JOINT Pinky3.R
										{
											OFFSET -0.016954 0.001233 -0.000225
											CHANNELS 3 Xrotation Yrotation Zrotation
											End Site
											{
												OFFSET -0.013962 0.001016 -0.000185
											}
										}
									}
								}
							}
						}
					}
				}
			}
		}
	}
}
MOTION
Frames: 6
Frame Time: 0.04166667
-0.015626 0.774864 1.055668 -9.749981 0.369581 8.133879 21.125376 2.576144 1.044094 5.886548 -1.902796 -19.786187 -23.650559 -2.049072 4.716475 1.535684 -5.556604 0.052805 -22.340709 -1.715648 4.300590 9.506696 0.084043 -2.818286 -1.617457 -9.544653 -9.942704 1.866863 -0.399242 -0.364009 8.895792 0.441916 -3.938314 4.661161 -5.739477 -4.908811 -4.283529 3.178921 -0.413308 6.848665 3.790505 15.948095 10.185412 4.645741 20.191579 3.647608 17.418021 -2.816653 13.133428 45.254183 -32.832299 12.628487 -3.823703 -28.965221 5.841528 -4.285723 -8.794711 0.000000 0.000000 0.000000 0.000000 0.000000 0.000000 0.000000 0.000000 0.000000 0.000000 0.000000 0.000000 0.000000 0.000000 0.000000 0.000000 0.000000 0.000000 0.000000 0.000000 0.000000 0.000000 0.000000 0.000000 0.000000 0.000000 0.000000 0.000000 0.000000 0.000000 0.000000 0.000000 0.000000 0.000000 0.000000 0.000000 0.000000 0.000000 0.000000 0.000000 0.000000 0.000000 2.994586 -17.507633 -4.008908 28.385861 -49.345276 23.048966 6.557565 0.270815 19.324216 2.366871 -7.822936 2.817979 0.000000 0.000000 0.000000 0.000000 0.000000 0.000000 0.000000 0.000000 0.000000 0.000000 0.000000 0.000000 0.000000 0.000000 0.000000 0.000000 0.000000 0.000000 0.000000 0.000000 0.000000 0.000000 0.000000 0.000000 0.000000 0.000000 0.000000 0.000000 0.000000 0.000000 0.000000 0.000000 0.000000 0.000000 0.000000 0.000000 0.000000 0.000000 0.000000 0.000000 0.000000 0.000000
-0.015938 0.796988 1.052679 -8.739257 0.879014 8.602097 21.129290 1.551805 0.889824 9.980235 -2.485092 -20.129724 -24.111518 -1.937457 5.348780 1.310537 -5.943262 -0.013416 -23.343398 -2.565647 4.741093 14.292499 -0.720363 -2.654208 -1.303610 -8.172692 -9.998450 1.719659 -0.454883 -0.272545 8.250672 -0.463992 -4.218213 4.278414 -5.641459 -4.842853 -3.776998 3.287618 -0.547240 6.836240 3.695358 15.921216 10.451417 5.069684 20.273942 3.601496 18.005609 -2.367923 13.496334 45.683374 -32.274972 12.664564 -4.251856 -29.347079 5.519396 -3.936026 -9.184716 0.000000 0.000000 0.000000 0.000000 0.000000 0.000000 0.000000 0.000000 0.000000 0.000000 0.000000 0.000000 0.000000 0.000000 0.000000 0.000000 0.000000 0.000000 0.000000 0.000000 0.000000 0.000000 0.000000 0.000000 0.000000 0.000000 0.000000 0.000000 0.000000 0.000000 0.000000 0.000000 0.000000 0.000000 0.000000 0.000000 0.000000 0.000000 0.000000 0.000000 0.000000 0.000000 2.718291 -17.885631 -4.130707 27.845330 -49.066607 22.530694 6.897604 0.459881 18.773407 2.741814 -7.650235 2.857934 0.000000 0.000000 0.000000 0.000000 0.000000 0.000000 0.000000 0.000000 0.000000 0.000000 0.000000 0.000000 0.000000 0.000000 0.000000 0.000000 0.000000 0.000000 0.000000 0.000000 0.000000 0.000000 0.000000 0.000000 0.000000 0.000000 0.000000 0.000000 0.000000 0.000000 0.000000 0.000000 0.000000 0.000000 0.000000 0.000000 0.000000 0.000000 0.000000 0.000000 0.000000 0.000000
-0.017410 0.819311 1.051850 -7.735501 1.687774 8.612799 20.334456 0.297702 0.824878 16.898405 -2.993520 -19.920901 -20.097053 -0.784254 7.836692 1.095243 -6.211156 -0.049799 -24.223723 -3.674447 5.022667 19.298708 -1.669468 -2.755646 -0.968305 -6.523915 -9.887314 1.575063 -0.595927 -0.247118 7.614823 -1.499899 -4.398513 3.779790 -5.476325 -4.680084 -3.246465 3.337110 -0.749725 6.663998 3.585427 15.757975 10.518185 5.558641 20.282464 3.615478 18.692812 -1.656184 13.902859 46.425303 -31.301021 12.730636 -4.504341 -28.873758 5.032328 -3.446534 -9.329142 0.000000 0.000000 0.000000 0.000000 0.000000 0.000000 0.000000 0.000000 0.000000 0.000000 0.000000 0.000000 0.000000 0.000000 0.000000 0.000000 0.000000 0.000000 0.000000 0.000000 0.000000 0.000000 0.000000 0.000000 0.000000 0.000000 0.000000 0.000000 0.000000 0.000000 0.000000 0.000000 0.000000 0.000000 0.000000 0.000000 0.000000 0.000000 0.000000 0.000000 0.000000 0.000000 2.516370 -18.116768 -4.168183 27.210551 -48.652887 22.044415 7.519587 0.392274 18.518000 2.737564 -7.359057 2.797440 0.000000 0.000000 0.000000 0.000000 0.000000 0.000000 0.000000 0.000000 0.000000 0.000000 0.000000 0.000000 0.000000 0.000000 0.000000 0.000000 0.000000 0.000000 0.000000 0.000000 0.000000 0.000000 0.000000 0.000000 0.000000 0.000000 0.000000 0.000000 0.000000 0.000000 0.000000 0.000000 0.000000 0.000000 0.000000 0.000000 0.000000 0.000000 0.000000 0.000000 0.000000 0.000000
-0.019089 0.838507 1.053780 -7.167745 2.591513 8.395004 17.986228 -1.230781 0.767128 25.491739 -3.230570 -19.011177 -12.684762 2.458292 8.929528 1.127878 -6.116973 0.006963 -24.098066 -4.973502 5.152083 22.667228 -2.473712 -2.848278 -0.501062 -4.713037 -9.603446 1.468154 -0.842877 -0.337399 7.218074 -2.617756 -4.476672 3.297253 -5.179128 -4.460179 -2.624474 3.181593 -0.982063 6.424355 3.512790 15.705182 10.728851 5.753981 20.481234 3.637840 19.430521 -1.019953 14.219726 47.311947 -29.847858 13.053107 -4.552701 -27.626462 4.330883 -2.593719 -9.164991 0.000000 0.000000 0.000000 0.000000 0.000000 0.000000 0.000000 0.000000 0.000000 0.000000 0.000000 0.000000 0.000000 0.000000 0.000000 0.000000 0.000000 0.000000 0.000000 0.000000 0.000000 0.000000 0.000000 0.000000 0.000000 0.000000 0.000000 0.000000 0.000000 0.000000 0.000000 0.000000 0.000000 0.000000 0.000000 0.000000 0.000000 0.000000 0.000000 0.000000 0.000000 0.000000 2.340363 -18.090692 -3.941606 26.529662 -48.381844 21.754189 8.313006 0.388043 18.496095 1.903077 -7.306282 2.554819 0.000000 0.000000 0.000000 0.000000 0.000000 0.000000 0.000000 0.000000 0.000000 0.000000 0.000000 0.000000 0.000000 0.000000 0.000000 0.000000 0.000000 0.000000 0.000000 0.000000 0.000000 0.000000 0.000000 0.000000 0.000000 0.000000 0.000000 0.000000 0.000000 0.000000 0.000000 0.000000 0.000000 0.000000 0.000000 0.000000 0.000000 0.000000 0.000000 0.000000 0.000000 0.000000
-0.020587 0.854818 1.057747 -6.838958 3.417257 7.841359 14.141685 -2.671399 0.734551 34.660270 -3.032888 -16.791118 -6.433682 5.151840 8.317110 1.356718 -5.876810 0.075813 -23.177733 -6.327410 4.959874 23.931300 -2.881308 -3.057170 -0.479281 -2.748407 -8.971520 1.384363 -1.252200 -0.473774 7.297233 -3.643808 -4.254624 2.806257 -4.743728 -4.211284 -1.976181 2.886161 -1.151048 5.935155 3.393201 15.342978 11.105333 5.874576 20.399138 3.426938 19.961825 -0.561104 14.250337 48.310385 -28.236428 13.993007 -4.514825 -25.768303 4.069287 -1.673584 -8.558258 0.000000 0.000000 0.000000 0.000000 0.000000 0.000000 0.000000 0.000000 0.000000 0.000000 0.000000 0.000000 0.000000 0.000000 0.000000 0.000000 0.000000 0.000000 0.000000 0.000000 0.000000 0.000000 0.000000 0.000000 0.000000 0.000000 0.000000 0.000000 0.000000 0.000000 0.000000 0.000000 0.000000 0.000000 0.000000 0.000000 0.000000 0.000000 0.000000 0.000000 0.000000 0.000000 1.999093 -17.753929 -3.481929 26.085870 -48.422902 21.979577 8.981281 0.643137 18.801955 0.809519 -7.005068 2.159753 0.000000 0.000000 0.000000 0.000000 0.000000 0.000000 0.000000 0.000000 0.000000 0.000000 0.000000 0.000000 0.000000 0.000000 0.000000 0.000000 0.000000 0.000000 0.000000 0.000000 0.000000 0.000000 0.000000 0.000000 0.000000 0.000000 0.000000 0.000000 0.000000 0.000000 0.000000 0.000000 0.000000 0.000000 0.000000 0.000000 0.000000 0.000000 0.000000 0.000000 0.000000 0.000000
-0.020998 0.867236 1.063051 -6.916024 3.922935 6.971819 9.760030 -3.566117 0.319985 43.010329 -2.605361 -14.118173 -1.625914 6.572024 8.218453 1.471239 -5.546435 0.182743 -21.266439 -7.428939 4.614566 24.507987 -3.124109 -2.864073 -1.241725 -0.870281 -8.185311 1.239097 -1.628347 -0.631081 7.763490 -4.461367 -3.618204 2.299943 -4.312366 -3.952073 -1.382406 2.573534 -1.213704 5.461231 3.275538 14.974940 11.689141 5.952243 19.940290 3.178871 20.455886 -0.162594 14.294982 49.052632 -26.588808 15.251150 -4.261130 -23.941489 3.795271 -0.852072 -7.743606 0.000000 0.000000 0.000000 0.000000 0.000000 0.000000 0.000000 0.000000 0.000000 0.000000 0.000000 0.000000 0.000000 0.000000 0.000000 0.000000 0.000000 0.000000 0.000000 0.000000 0.000000 0.000000 0.000000 0.000000 0.000000 0.000000 0.000000 0.000000 0.000000 0.000000 0.000000 0.000000 0.000000 0.000000 0.000000 0.000000 0.000000 0.000000 0.000000 0.000000 0.000000 0.000000 1.485235 -17.359716 -2.881716 25.563473 -48.359489 21.951433 9.629976 0.957562 19.703673 -0.590559 -6.332412 1.881567 0.000000 0.000000 0.000000 0.000000 0.000000 0.000000 0.000000 0.000000 0.000000 0.000000 0.000000 0.000000 0.000000 0.000000 0.000000 0.000000 0.000000 0.000000 0.000000 0.000000 0.000000 0.000000 0.000000 0.000000 0.000000 0.000000 0.000000 0.000000 0.000000 0.000000 0.000000 0.000000 0.000000 0.000000 0.000000 0.000000 0.000000 0.000000 0.000000 0.000000 0.000000 0.000000
